<svg viewBox="0 -7 512 512" xmlns="http://www.w3.org/2000/svg">
    <style>
	 	.multi-sign-up {
		 	fill: #1da1f2;
            stroke: #1da1f2;
		 }
	 </style>

<path class="multi-sign-up" d="m316.703125 252.011719c28.988281-27.324219 45.714844-65.421875 45.714844-106.074219 0-80.46875-65.46875-145.9375-145.9375-145.9375s-145.9375 65.46875-145.9375 145.9375c0 40.652344 16.726562 78.75 45.714843 106.074219-30.558593 15.941406-56.863281 38.960937-76.96875 67.550781-25.703124 36.542969-39.289062 79.558594-39.289062 124.382812v38.46875c0 8.359376 6.78125 15.140626 15.140625 15.140626h402.679687c8.359376 0 15.140626-6.78125 15.140626-15.140626v-38.46875c0-44.824218-13.585938-87.839843-39.289063-124.382812-20.109375-28.589844-46.410156-51.609375-76.96875-67.550781zm-56.613281-62.464844c-12.023438 12.023437-27.816406 18.035156-43.609375 18.035156s-31.585938-6.011719-43.609375-18.035156c-5.914063-5.910156-5.914063-15.5 0-21.414063 5.914062-5.914062 15.5-5.914062 21.414062 0 12.238282 12.238282 32.152344 12.238282 44.390625 0 5.914063-5.914062 15.5-5.914062 21.414063 0 5.914062 5.914063 5.914062 15.503907 0 21.414063zm0 0"/>
<path class="multi-sign-up" d="m496.859375 155.304688h-25.671875v-25.667969c0-8.363281-6.78125-15.144531-15.144531-15.144531s-15.140625 6.78125-15.140625 15.144531v25.667969h-25.675782c-8.359374 0-15.140624 6.78125-15.140624 15.144531s6.78125 15.140625 15.140624 15.140625h25.675782v25.675781c0 8.359375 6.777344 15.140625 15.140625 15.140625s15.144531-6.78125 15.144531-15.140625v-25.675781h25.671875c8.359375 0 15.140625-6.777344 15.140625-15.140625s-6.78125-15.144531-15.140625-15.144531zm0 0"/>

</svg>