<?xml version="1.0" encoding="utf-8"?>
<!-- Generator: Adobe Illustrator 16.0.0, SVG Export Plug-In . SVG Version: 6.00 Build 0)  -->
<!DOCTYPE svg PUBLIC "-//W3C//DTD SVG 1.1//EN" "http://www.w3.org/Graphics/SVG/1.1/DTD/svg11.dtd">
<svg version="1.1" id="Layer_1" xmlns="http://www.w3.org/2000/svg" xmlns:xlink="http://www.w3.org/1999/xlink" x="0px" y="0px"
	 width="244.4px" height="89px" viewBox="0 0 244.4 89" style="enable-background:new 0 0 244.4 89;" xml:space="preserve">
<style type="text/css">
<![CDATA[
	.st0{fill:none;stroke:#FFFFFF;stroke-width:5;stroke-miterlimit:10;stroke-dasharray:7.1818,7.1818;}
	.st1{font-size:11.7998;}
	.st2{fill:#27AAE1;}
	.st3{fill:#29A8E0;}
	.st4{fill:none;stroke:#FFFFFF;stroke-width:5;stroke-miterlimit:10;}
	.st5{fill:#FFFFFF;}
	.st6{font-family:'Arial';}
	.st7{font-size:18;}
	.st8{font-size:20.7912;}
	.st-ex-1 {font-size: 0.7rem }
]]>
</style>
<g>
	<path class="st2" d="M227,2.4V2.3H18v0.1c0,6-5,12-11.9,12v60.9C12.8,75.4,18.6,81,18,87.7H227c0.3-6.7,5-13.9,12.4-13.4v-60
		C232.7,14,228,8.2,227,2.4z"/>
	<g id="Line_x5F_Kyaung">
		<g>
			<line class="st4" x1="157.2" y1="2" x2="157.2" y2="5.5"/>
			<line class="st0" x1="157.2" y1="12.7" x2="157.2" y2="80.9"/>
			<line class="st4" x1="157.2" y1="84.5" x2="157.2" y2="88"/>
		</g>
	</g>
	<g>
		<text transform="matrix(1 0 0 1 36.1577 37.9746)" class="st5 st6 st8">Pwal Daw </text>
		<text transform="matrix(1 0 0 1 54 72.8472)"><tspan x="0" y="0" class="st5 st6 st7">T</tspan><tspan x="10.3" y="0" class="st5 st6 st7">icket</tspan></text>
	</g>
</g>
<g>
	<circle class="st5" cx="202.7" cy="45" r="21.3"/>
	<circle class="st3" cx="202.7" cy="45" r="18.2"/>
	<text transform="matrix(1 0 0 1 190.1416 48.0952)" class="st5 st6 st1 st-ex-1">Pass</text>
</g>
</svg>
