<!DOCTYPE svg PUBLIC "-//W3C//DTD SVG 1.1//EN" "http://www.w3.org/Graphics/SVG/1.1/DTD/svg11.dtd">
<svg version="1.1"  id="white_card" xmlns="http://www.w3.org/2000/svg" xmlns:xlink="http://www.w3.org/1999/xlink" x="0px" y="0px"
	viewBox="0 0 242.7 89" style="enable-background:new 0 0 242.7 89;" xml:space="preserve">
<style type="text/css">
	svg {
		transform-origin: 50% 50%;
	}
	.st0{fill:none;stroke:#29A8E0;stroke-width:5;stroke-miterlimit:10;}
	.st1{font-size:11.7998;}
	.st2{fill:#29A8E0;}
	.st3{fill:#FFFFFF;}
	.st4{font-family:'Arial';}
	.st5{font-size:18;}
	.st6{fill:none;stroke:#29A8E0;stroke-width:5;stroke-miterlimit:10;stroke-dasharray:7.1818,7.1818;}
	.st7{font-size:20.7912;}
	.st-ex-1 { font-size: 0.7rem }

	#pass {
		transition: all 1s ease-in-out;
		<!-- transform-origin: 85% 85% ; -->
		transform-origin:  201px 45px;
		animation: white_card_rotate 18s cubic-bezier(0.68, -0.55, 0.27, 1.55) infinite forwards;
	}
	

	@keyframes white_card_rotate {
		0% { transform: rotate(0deg)}
		50% { transform: rotate(360deg)}
	}
</style>
<g id="white_card_id">
	<g>
		<path class="st3 " d="M225.3,2.4V2.3h-209v0.1c0,6-5,12-11.9,12v60.9c6.7,0.1,12.5,5.7,11.9,12.4h209.1c0.3-6.7,5-13.9,12.4-13.4
			v-60C231.1,14,226.3,8.2,225.3,2.4z"/>
		<g id="Line_x5F_Kyaung">
			<line class="st2" x1="155.5" y1="2" x2="155.5" y2="88"/>
			<g>
				<line class="st0" x1="155.5" y1="2" x2="155.5" y2="5.5"/>
				<line class="st6" x1="155.5" y1="12.7" x2="155.5" y2="80.9"/>
				<line class="st0" x1="155.5" y1="84.5" x2="155.5" y2="88"/>
			</g>
		</g>
		<g>
			<text transform="matrix(1 0 0 1 34.4902 37.9746)" class="st2 st4 st7">Pwal Daw </text>
			<text transform="matrix(1 0 0 1 52.3325 72.8472)"><tspan x="0" y="0" class="st2 st4 st5">T</tspan><tspan x="10.3" y="0" class="st2 st4 st5">icket</tspan></text>
		</g>
	</g>
	<g id="pass">
		<circle class="st2" cx="201" cy="45" r="21.3"/>
		<circle class="st3" cx="201" cy="45" r="18.2"/>
		<text transform="matrix(1 0 0 1 188.4741 48.0952)"  class="st2 st4 st1 st-ex-1">Pass</text>
	</g>
</g>

</svg>
